<?xml version="1.0" standalone="no"?>
<!DOCTYPE svg PUBLIC "-//W3C//DTD SVG 20010904//EN"
 "http://www.w3.org/TR/2001/REC-SVG-20010904/DTD/svg10.dtd">
<svg version="1.0" xmlns="http://www.w3.org/2000/svg"
 width="256.000000pt" height="256.000000pt" viewBox="0 0 256.000000 256.000000"
 preserveAspectRatio="xMidYMid meet">
<metadata>
Created by potrace 1.14, written by Peter Selinger 2001-2017
</metadata>
<g transform="translate(0.000000,256.000000) scale(0.100000,-0.100000)"
fill="#000000" stroke="none">
<path d="M110 2546 c0 -7 -7 -19 -15 -26 -10 -9 -15 -9 -15 -1 0 6 -4 11 -10
11 -5 0 -10 -12 -10 -26 0 -22 3 -24 14 -15 12 10 18 8 31 -12 8 -13 13 -32 9
-41 -4 -11 -1 -16 10 -16 12 0 16 10 16 35 0 19 -5 35 -11 35 -11 0 -9 16 6
53 5 12 2 17 -9 17 -9 0 -16 -6 -16 -14z"/>
<path d="M256 2544 c-11 -27 -7 -31 38 -43 55 -13 56 -13 56 -1 0 6 -6 10 -14
10 -8 0 -23 11 -34 25 -23 29 -37 32 -46 9z"/>
<path d="M313 2546 c2 -5 16 -14 32 -19 22 -8 30 -6 38 8 8 14 11 15 18 4 7
-11 9 -11 9 3 0 14 -9 17 -50 16 -29 -1 -49 -6 -47 -12z"/>
<path d="M430 2546 c0 -8 -6 -26 -14 -41 -12 -23 -15 -25 -19 -8 -3 10 -5 5
-4 -11 2 -25 6 -30 30 -31 16 0 27 5 27 12 0 7 5 13 10 13 6 0 10 6 10 14 0
16 24 38 33 30 3 -4 2 -15 -4 -25 -7 -14 -6 -19 4 -19 8 0 22 -9 31 -19 14
-16 16 -25 7 -58 -6 -21 -18 -48 -27 -61 -24 -34 -8 -40 24 -9 34 32 49 35 28
6 -8 -12 -12 -27 -10 -34 3 -7 -2 -15 -10 -18 -23 -9 -19 -27 4 -24 24 4 54
42 45 57 -3 6 1 7 10 4 13 -5 15 -15 10 -48 -4 -22 -13 -51 -21 -63 -8 -12
-14 -31 -14 -41 0 -10 -6 -19 -13 -19 -7 0 -24 -3 -38 -6 -19 -5 -31 -1 -44
13 -12 14 -14 20 -5 20 10 0 10 3 0 15 -17 20 -32 19 -28 -2 4 -22 -84 -56
-115 -43 -18 7 -18 9 -4 9 21 1 24 41 2 41 -8 0 -15 -6 -15 -14 0 -22 -19 -29
-37 -14 -13 10 -17 10 -20 1 -3 -7 -11 -13 -19 -13 -8 0 -14 -7 -14 -15 0 -18
41 -20 58 -3 9 9 12 9 12 1 0 -14 -18 -26 -45 -30 -11 -2 -22 -8 -23 -13 -2
-6 -8 -7 -13 -4 -6 3 -16 1 -23 -5 -18 -15 -32 3 -39 52 -4 25 -2 37 6 37 9 0
9 2 -1 8 -6 5 -12 19 -11 33 0 13 -2 47 -5 74 -3 28 -5 63 -6 79 0 16 -3 27
-6 24 -10 -11 -15 -61 -15 -147 0 -46 -5 -93 -10 -104 -9 -15 -8 -18 1 -12 10
6 12 1 8 -20 -3 -15 0 -50 8 -78 7 -27 14 -87 15 -131 1 -45 7 -84 13 -88 6
-4 7 -10 2 -15 -7 -7 -30 22 -31 40 0 4 -6 11 -14 16 -11 7 -10 13 4 35 14 20
15 30 6 39 -6 6 -11 8 -11 3 0 -4 -7 0 -16 8 -22 23 -25 68 -5 83 14 11 14 12
-5 13 -17 0 -23 8 -28 38 -3 20 -7 44 -7 53 0 11 -7 15 -25 11 -19 -3 -24 -10
-23 -36 0 -24 2 -27 8 -12 7 17 8 16 24 -7 21 -32 21 -41 3 -34 -16 6 -24 -9
-32 -60 -5 -32 -4 -34 15 -24 31 17 34 14 28 -29 -3 -22 -1 -42 3 -45 11 -7
-18 -65 -32 -65 -6 0 -3 11 6 25 15 23 15 25 -2 25 -14 0 -18 -9 -20 -45 -1
-28 3 -47 12 -52 22 -13 29 -50 11 -57 -24 -9 -7 -28 17 -20 19 6 20 3 13 -22
-4 -16 -8 -48 -8 -72 0 -30 -4 -41 -13 -38 -18 7 -26 -5 -13 -21 9 -10 8 -17
-1 -28 -8 -9 -9 -15 -2 -15 6 0 13 4 16 9 3 4 17 7 31 6 27 -3 28 -1 16 30 -6
14 -2 28 10 47 11 14 19 33 19 41 0 17 28 43 37 34 3 -4 12 1 20 11 13 15 14
15 9 0 -2 -9 1 -22 9 -28 13 -11 38 -70 29 -70 -2 0 -9 11 -14 25 -5 14 -14
25 -20 25 -13 0 -13 -6 2 -30 10 -15 9 -22 -5 -38 -34 -37 -16 -57 21 -22 27
25 32 25 32 -1 0 -15 5 -19 19 -14 11 3 35 -3 56 -15 45 -25 151 -32 164 -11
7 10 9 11 13 1 3 -10 15 -10 58 0 54 13 112 59 153 122 27 43 20 46 -17 8 -42
-43 -94 -90 -102 -90 -3 0 -12 -7 -20 -15 -9 -8 -27 -15 -42 -14 -23 1 -24 2
-7 8 46 15 82 42 100 75 11 20 22 36 26 36 8 0 27 70 27 104 0 16 7 33 16 38
9 5 16 14 16 19 0 6 -4 8 -9 5 -6 -4 -8 41 -7 109 1 63 -1 116 -5 117 -4 2
-11 24 -14 49 -5 38 -3 48 11 53 9 3 22 2 29 -4 10 -8 15 -6 20 9 3 12 14 21
24 21 16 0 17 -5 11 -32 -4 -18 -12 -32 -18 -30 -16 3 -15 -25 1 -35 7 -4 18
-21 25 -37 13 -30 27 -28 27 5 0 10 4 18 10 16 16 -3 6 -198 -13 -248 -6 -14
-9 -58 -7 -97 3 -63 1 -74 -16 -82 -25 -14 -24 -30 1 -30 14 0 20 -7 21 -22 0
-13 3 -32 5 -43 3 -11 6 -146 7 -300 1 -302 -6 -356 -48 -363 -16 -3 -17 -1
-5 7 13 9 13 11 1 11 -12 0 -12 2 1 13 23 18 38 73 37 131 -1 41 -3 46 -9 26
-4 -14 -9 -41 -9 -60 -1 -23 -4 -30 -10 -22 -5 9 -14 -1 -29 -35 -31 -74 -51
-168 -61 -288 -5 -60 -12 -119 -17 -130 -5 -14 -4 -17 4 -10 5 6 13 19 16 30
3 11 3 4 1 -15 -11 -87 -17 -240 -10 -240 15 0 55 51 55 70 0 101 11 244 22
280 15 47 23 52 73 37 17 -4 35 -9 40 -10 6 -2 16 -6 23 -11 9 -5 15 -1 19 13
5 19 25 31 22 13 -1 -4 -1 -16 0 -27 2 -18 3 -18 16 5 12 22 14 23 20 7 6 -13
11 -15 20 -7 9 8 15 7 18 -2 4 -10 7 -10 15 1 5 7 12 9 15 4 8 -13 -9 -37 -21
-29 -11 7 -42 -2 -42 -13 0 -15 52 -3 73 17 43 41 50 30 42 -60 -9 -114 -14
-147 -25 -188 -6 -19 -10 -40 -10 -45 0 -15 60 -49 70 -39 10 12 30 97 30 132
0 16 7 43 16 61 12 24 13 35 4 46 -12 14 -9 149 5 212 9 39 7 39 -140 48 -60
4 -118 9 -128 11 -10 1 -51 4 -92 5 -41 1 -75 5 -75 9 0 16 119 19 167 5 49
-15 150 -20 191 -9 14 4 30 23 42 50 23 49 24 61 9 66 -6 2 -11 16 -11 31 0
15 -4 27 -9 27 -5 0 -15 13 -23 29 -9 16 -25 31 -37 34 -17 5 -21 11 -17 36 3
21 0 31 -10 33 -9 2 -16 13 -17 25 -1 12 2 20 7 17 14 -9 9 13 -6 25 -10 8
-12 21 -7 39 4 15 6 38 4 52 -9 90 -15 384 -8 483 7 124 17 146 50 113 9 -9
23 -16 31 -16 8 0 13 -4 10 -9 -3 -5 1 -12 10 -15 12 -5 14 -10 5 -20 -6 -7
-8 -15 -5 -19 9 -9 -35 -19 -48 -11 -7 4 -4 -3 7 -15 11 -13 19 -26 19 -30 -1
-3 0 -10 2 -16 2 -5 4 -21 6 -35 4 -31 37 -40 45 -12 7 28 53 39 70 16 12 -16
13 -15 13 13 0 46 23 60 51 32 15 -15 24 -18 27 -11 4 14 32 16 32 3 0 -5 -7
-17 -16 -26 -14 -13 -19 -14 -25 -3 -5 8 -9 -12 -9 -49 0 -49 3 -63 15 -63 17
0 21 -36 5 -42 -7 -2 -5 -11 4 -23 15 -19 15 -19 10 5 l-5 25 18 -25 c10 -13
51 -62 91 -109 39 -46 73 -94 74 -105 3 -48 0 -103 -10 -151 -6 -27 -24 -115
-41 -195 -42 -203 -52 -257 -57 -299 -7 -60 -31 -185 -41 -211 -3 -8 -5 -26
-4 -39 2 -14 -1 -21 -8 -17 -6 4 -11 1 -11 -8 0 -8 -5 -16 -11 -18 -8 -3 -8
-10 2 -26 10 -16 11 -29 2 -54 -6 -18 -16 -54 -23 -80 -12 -46 -30 -65 -30
-33 0 9 -16 31 -36 51 -27 25 -44 34 -63 32 -15 -2 -25 -8 -23 -16 2 -9 -6
-12 -20 -10 -15 2 -30 -5 -41 -19 -21 -26 -39 -31 -31 -8 8 19 0 19 -19 1 -11
-12 -23 -13 -58 -4 -24 6 -48 14 -54 18 -18 13 -142 2 -175 -15 -19 -10 -42
-14 -57 -10 -18 4 -29 1 -39 -12 -13 -17 -13 -17 -14 1 0 18 -1 18 -20 1 -25
-22 -26 -9 -2 36 15 30 17 67 17 324 0 184 -5 317 -13 363 -14 83 -8 103 37
123 26 12 31 20 39 74 5 36 5 68 -1 79 -16 32 -45 59 -56 51 -6 -3 -11 -1 -11
4 0 19 -83 12 -110 -9 -14 -11 -31 -20 -39 -20 -8 0 -27 -14 -43 -31 -37 -38
-34 -70 13 -122 22 -25 46 -40 80 -48 54 -14 69 -38 69 -113 0 -23 5 -68 10
-101 13 -75 21 -288 14 -337 -5 -28 -11 -36 -25 -35 -22 1 -25 13 -6 20 6 3 0
6 -15 6 -16 1 -28 6 -28 11 0 6 -11 8 -25 6 -18 -3 -25 0 -25 10 0 11 6 13 19
9 15 -4 20 -1 19 12 -1 10 2 32 5 48 8 36 -4 58 -33 60 -16 1 -20 -3 -18 -19
2 -12 9 -20 16 -18 18 3 14 -35 -4 -42 -9 -4 -25 0 -34 9 -9 9 -25 13 -34 9
-21 -8 -22 -54 0 -54 12 0 14 -7 9 -32 -12 -52 -7 -106 11 -138 18 -29 18 -30
-1 -44 -17 -13 -21 -13 -31 -1 -20 26 -33 -3 -27 -60 4 -41 2 -53 -10 -58 -10
-4 -18 0 -20 11 -7 24 -3 95 6 109 4 6 10 31 13 55 5 36 2 50 -19 81 -15 22
-27 32 -30 25 -3 -9 -9 -7 -20 7 -8 10 -13 25 -10 32 3 7 -2 13 -12 13 -9 0
-13 -4 -10 -10 3 -5 -1 -10 -10 -10 -12 0 -15 6 -10 20 4 11 2 20 -4 20 -6 0
-11 -14 -11 -31 0 -16 4 -28 9 -25 5 4 7 -3 4 -14 -4 -16 0 -20 18 -21 22 0
23 -1 4 -8 -11 -5 -28 -4 -39 1 -27 14 -39 -10 -21 -39 18 -27 19 -46 4 -41
-13 4 -41 102 -37 127 3 22 -10 41 -28 41 -12 0 -13 -4 -4 -21 14 -26 8 -33
-20 -24 -12 4 -19 9 -16 12 3 3 1 14 -4 23 -15 28 -50 14 -50 -19 1 -33 23
-63 42 -56 22 9 30 -43 12 -69 -8 -11 -14 -17 -14 -12 0 5 -7 3 -15 -4 -11 -9
-12 -17 -4 -32 9 -17 8 -18 -11 -6 -11 7 -23 20 -25 30 -3 9 -12 19 -20 21
-11 5 -14 -23 -14 -157 -1 -90 1 -171 5 -180 6 -15 65 -16 698 -15 380 1 683
3 674 6 -10 2 -18 11 -18 19 0 12 -4 12 -20 4 -30 -16 -61 -3 -57 23 12 71 37
74 68 10 17 -34 25 -43 27 -30 4 18 4 18 17 0 13 -17 14 -16 24 10 6 16 11 42
11 59 0 27 25 96 40 108 3 3 17 33 29 68 13 34 28 62 33 62 6 0 8 7 4 15 -3 8
8 54 24 102 16 49 30 77 30 63 1 -23 2 -24 14 -7 14 18 14 18 20 0 3 -10 5
-22 3 -26 -1 -5 6 -13 16 -18 9 -6 17 -17 17 -25 0 -8 -4 -12 -10 -9 -5 3 -10
1 -10 -4 0 -6 5 -11 11 -11 6 0 8 -8 4 -20 -3 -10 -2 -28 4 -38 6 -11 12 -39
13 -62 3 -40 6 -45 40 -59 25 -10 36 -21 33 -30 -5 -12 -3 -12 11 0 16 13 15
15 -9 23 -30 11 -38 31 -8 21 16 -5 19 -1 17 32 -1 35 -3 38 -35 43 -27 4 -37
11 -44 33 -5 16 -7 30 -5 32 2 3 23 -5 45 -16 26 -13 43 -29 47 -45 4 -13 11
-24 16 -24 6 0 10 -7 10 -15 0 -24 13 -17 45 23 54 67 61 88 41 122 -18 31
-15 50 9 50 7 0 16 8 18 17 5 18 11 -40 7 -66 -1 -9 11 -4 30 12 32 27 50 34
50 19 0 -11 -51 -58 -70 -65 -12 -4 -11 -6 3 -6 13 -1 17 -10 17 -37 0 -28 3
-35 18 -32 9 2 16 11 14 19 -1 9 7 24 18 34 21 19 21 19 11 -9 -16 -41 -13
-44 12 -15 23 28 109 56 115 39 6 -18 30 -11 35 10 11 43 40 20 67 -53 5 -15
17 -27 26 -27 21 0 43 29 44 57 0 12 5 25 11 28 13 9 -19 34 -44 35 -15 0 -16
3 -7 20 9 16 8 20 -5 20 -8 0 -15 5 -15 10 0 6 6 10 14 10 14 0 26 26 32 72 3
23 0 28 -19 28 -21 1 -22 1 -3 15 11 8 16 15 12 15 -5 0 -3 7 4 15 9 11 8 20
-7 42 -16 23 -18 33 -9 56 8 23 7 35 -7 59 -12 22 -14 33 -7 38 7 4 5 12 -6
21 -15 12 -17 12 -9 0 5 -9 4 -12 -3 -7 -6 3 -9 20 -7 36 2 17 0 30 -5 30 -5
0 -8 9 -7 20 1 14 6 19 16 15 9 -4 5 5 -8 19 -19 20 -21 28 -13 39 7 8 9 17 5
20 -6 6 39 12 61 8 4 -1 14 3 22 10 7 6 18 8 24 4 5 -3 10 -1 10 4 0 6 4 11 9
11 5 0 8 -8 7 -17 0 -10 5 -17 12 -15 8 1 12 -13 12 -45 0 -27 5 -86 11 -133
15 -114 18 -159 23 -338 3 -84 8 -157 11 -163 4 -5 2 -15 -4 -22 -5 -7 -12
-46 -14 -87 -2 -48 -9 -84 -20 -101 -13 -20 -15 -32 -7 -60 7 -22 7 -35 0 -37
-5 -2 -10 -18 -10 -35 0 -25 3 -28 12 -19 7 7 13 37 13 66 1 62 29 111 61 104
17 -4 15 -7 -13 -33 -18 -16 -33 -36 -33 -45 1 -12 3 -12 11 3 14 24 32 22 19
-3 -9 -17 -7 -22 14 -31 33 -15 42 -39 15 -39 -11 0 -18 4 -15 9 5 8 -23 26
-29 19 -6 -7 -25 -47 -25 -52 0 -3 38 -6 85 -6 70 0 85 3 85 15 0 13 -4 14
-20 5 -21 -11 -40 -6 -40 10 0 5 10 10 23 12 21 3 22 9 25 88 9 236 -4 407
-25 330 -6 -23 -8 -21 -15 15 -6 37 -4 42 25 68 25 22 28 28 13 25 -24 -4 -60
51 -38 59 6 3 12 15 12 28 0 16 5 22 18 21 12 -1 18 8 20 33 2 21 0 31 -7 26
-6 -3 -11 -1 -11 4 0 6 6 11 13 12 6 0 2 4 -10 9 -23 9 -32 40 -13 40 6 0 9
-3 8 -8 -2 -4 1 -8 7 -10 5 -1 10 23 12 53 2 43 0 55 -12 55 -8 0 -24 9 -35
20 -11 11 -27 20 -36 20 -9 0 -14 5 -12 12 2 6 -9 23 -24 37 -30 26 -54 96
-37 107 5 3 9 -2 9 -11 0 -9 5 -13 10 -10 6 3 10 14 10 25 0 10 7 21 16 24 12
4 14 1 9 -14 -5 -15 -2 -20 11 -20 13 0 14 -3 5 -13 -6 -8 -8 -17 -4 -21 4 -3
-2 -13 -13 -20 -18 -14 -18 -15 10 -37 15 -12 37 -31 47 -42 16 -18 19 -18 25
-4 3 9 9 15 13 13 3 -2 7 22 8 55 1 55 0 58 -20 56 -17 -2 -23 4 -25 26 -2 15
1 27 7 27 6 0 11 -7 11 -15 0 -8 5 -15 11 -15 5 0 9 8 8 18 -1 9 0 19 1 22 1
3 3 15 6 28 3 18 0 23 -13 20 -12 -3 -17 -12 -16 -26 2 -12 -2 -22 -7 -22 -6
0 -10 5 -10 11 0 6 -9 9 -20 6 -27 -7 -25 7 3 26 12 8 32 24 44 36 21 20 22
25 22 363 1 189 -3 361 -9 383 -5 22 -6 42 -2 45 4 3 8 13 10 24 3 14 -1 17
-14 12 -28 -11 -63 19 -62 54 1 23 5 30 17 27 9 -2 15 -9 13 -16 -4 -19 8 -51
18 -51 5 0 6 8 3 17 -5 12 -2 15 8 11 12 -5 14 16 15 123 0 70 -4 126 -8 123
-4 -3 -8 -19 -8 -35 0 -22 -7 -32 -25 -41 -14 -6 -25 -16 -25 -21 0 -6 -2 -8
-5 -5 -3 3 4 25 15 50 13 31 18 56 14 77 -7 32 3 40 24 19 6 -6 15 -8 19 -4 4
4 1 11 -6 15 -7 5 -11 13 -7 19 3 5 -2 13 -12 17 -15 6 -15 8 -1 18 18 13 30
75 22 106 -4 15 -13 21 -34 21 -32 0 -32 -2 -29 -76 1 -38 -3 -56 -17 -69 -13
-13 -14 -20 -5 -23 17 -5 15 -22 -3 -22 -17 0 -18 -5 -6 -28 6 -11 4 -33 -6
-61 -11 -34 -12 -50 -4 -68 15 -32 14 -36 -4 -29 -8 3 -15 1 -15 -4 0 -6 -7
-10 -15 -10 -8 0 -15 -7 -15 -15 0 -8 7 -15 15 -15 8 0 16 -10 16 -22 1 -13 2
-30 3 -38 1 -8 5 -21 9 -28 5 -7 7 -25 6 -40 -2 -15 0 -33 5 -40 4 -7 2 -20
-6 -29 -7 -9 -12 -23 -11 -32 4 -22 -12 -45 -26 -37 -6 4 -9 11 -6 16 3 5 0
29 -8 52 -8 24 -12 60 -10 81 3 20 1 37 -3 37 -10 0 -34 -47 -34 -66 0 -13
-28 -39 -35 -32 -9 8 -10 43 -2 45 15 3 47 71 47 97 0 14 5 36 11 50 10 20 8
28 -9 47 -12 12 -19 26 -15 32 3 5 2 12 -3 16 -5 3 -15 17 -22 30 -11 18 -11
25 -2 31 8 5 8 10 2 14 -16 10 -56 -35 -102 -118 -25 -43 -57 -92 -72 -108
-16 -17 -28 -34 -28 -39 0 -12 -17 -12 -24 0 -3 4 3 16 14 26 11 10 20 24 20
32 0 8 7 21 15 30 8 8 13 19 9 24 -10 17 7 49 27 49 10 0 19 5 19 11 0 5 -4 7
-10 4 -5 -3 -10 -1 -10 5 0 6 11 15 25 20 24 9 35 30 15 30 -20 0 -2 81 24
107 14 14 26 32 26 39 0 18 -17 27 -24 12 -4 -7 -4 -2 -1 12 2 14 5 33 5 43 0
9 5 17 11 17 5 0 9 -10 7 -22 -2 -11 3 -23 9 -25 7 -3 13 2 13 11 0 9 5 16 11
16 14 0 4 -73 -11 -78 -5 -2 -10 -8 -10 -13 0 -4 8 -6 18 -2 9 3 14 3 10 -1
-3 -4 -14 -9 -24 -10 -25 -4 -65 -69 -54 -87 8 -12 11 -12 22 0 11 12 10 12
-2 6 -13 -8 -13 -7 -1 9 8 9 20 15 27 12 7 -3 20 11 29 31 15 31 19 34 27 19
5 -9 8 -22 6 -28 -3 -7 4 -20 14 -30 23 -23 31 -23 19 0 -15 28 -29 100 -21
109 13 15 20 73 9 73 -7 0 -9 11 -7 25 7 35 -22 33 -44 -2 -13 -21 -18 -23
-18 -10 0 9 5 17 10 17 6 0 10 4 10 9 0 5 -32 9 -71 10 -66 1 -71 -1 -66 -18
2 -11 1 -39 -4 -63 -16 -77 -20 -170 -7 -162 7 5 8 3 3 -6 -4 -7 -10 -27 -12
-43 -1 -17 -7 -33 -12 -37 -5 -3 -12 -17 -16 -32 -7 -27 -35 -60 -35 -41 0 5
3 13 7 17 4 3 8 14 9 24 2 9 4 26 6 37 2 11 9 26 16 33 18 20 15 43 -8 49 -22
6 -37 75 -25 121 4 15 9 48 12 74 l5 46 -63 -1 c-65 -2 -92 -21 -45 -33 29 -7
25 -24 -5 -24 -10 0 -20 -4 -20 -10 -1 -5 -2 -13 -3 -17 -1 -5 -6 -36 -10 -70
-7 -54 -11 -63 -29 -63 -20 0 -20 1 -2 20 15 17 19 39 20 110 l1 90 -763 0
c-640 0 -763 -2 -763 -14z m1166 -22 c-9 -9 -20 -14 -23 -10 -4 3 2 13 13 20
25 18 31 12 10 -10z m154 5 c0 -5 -4 -9 -10 -9 -5 0 -10 7 -10 16 0 8 5 12 10
9 6 -3 10 -10 10 -16z m40 -85 c0 -14 -4 -23 -9 -20 -5 3 -7 15 -4 26 7 28 13
25 13 -6z m93 -10 c-3 -9 -1 -19 4 -23 7 -4 7 -15 2 -29 -5 -13 -13 -21 -19
-17 -9 6 -12 72 -3 88 8 14 22 -3 16 -19z m167 12 c0 -16 -18 -31 -27 -22 -8
8 5 36 17 36 5 0 10 -6 10 -14z m-589 -41 c-48 -28 -59 -31 -39 -12 22 20 52
36 68 36 8 1 -5 -10 -29 -24z m551 -47 c-7 -7 -12 -8 -12 -2 0 6 3 14 7 17 3
4 9 5 12 2 2 -3 -1 -11 -7 -17z m-157 -28 c3 -5 1 -10 -4 -10 -6 0 -11 5 -11
10 0 6 2 10 4 10 3 0 8 -4 11 -10z m235 -14 c0 -2 -7 -7 -16 -10 -8 -3 -12 -2
-9 4 6 10 25 14 25 6z m-78 -52 c5 -8 3 -14 -6 -17 -10 -4 -13 -1 -10 7 3 8 0
17 -5 21 -6 3 -8 11 -4 18 5 8 8 7 11 -3 3 -8 9 -20 14 -26z m-1322 -4 c-13
-8 -13 -11 -1 -19 9 -6 10 -14 5 -22 -5 -8 -9 -25 -9 -38 0 -13 -9 -29 -20
-35 -11 -6 -23 -15 -26 -20 -4 -4 -17 -2 -30 5 -13 7 -19 14 -13 16 7 2 10 13
7 23 -4 14 2 22 20 29 14 6 29 20 32 33 8 24 23 38 40 38 6 0 3 -5 -5 -10z
m180 -76 c0 -8 4 -12 10 -9 6 4 7 -2 2 -16 -11 -28 -3 -71 12 -66 6 2 10 12
10 21 -3 26 13 18 22 -11 4 -16 7 -31 6 -35 -3 -14 10 -8 25 10 8 9 12 12 9 6
-3 -7 1 -14 9 -18 18 -7 20 -47 3 -65 -8 -9 -9 -12 -1 -7 18 10 43 -4 43 -25
0 -22 11 -24 28 -7 9 9 12 9 12 0 0 -7 -4 -12 -10 -12 -23 0 -7 -29 19 -35 32
-7 64 -35 41 -35 -15 0 -83 41 -88 52 -2 4 -10 8 -19 8 -16 0 -73 53 -73 68 0
15 28 22 34 9 2 -7 5 -5 5 5 1 24 -14 31 -29 13 -16 -19 -34 -19 -26 0 3 9 0
15 -8 15 -8 0 -17 8 -20 18 -3 9 -13 28 -21 42 -17 28 -21 105 -5 95 6 -3 10
-13 10 -21z m1656 -39 c-3 -9 -11 -13 -16 -10 -8 5 -7 11 1 21 14 18 24 11 15
-11z m-499 -7 c-3 -8 -6 -5 -6 6 -1 11 2 17 5 13 3 -3 4 -12 1 -19z m-1457
-12 c0 -3 -4 -8 -10 -11 -5 -3 -10 -1 -10 4 0 6 5 11 10 11 6 0 10 -2 10 -4z
m291 -84 c0 -26 3 -41 6 -35 7 18 30 -7 39 -42 5 -19 12 -25 24 -22 30 8 44
-33 35 -105 -4 -35 -6 -106 -6 -158 5 -421 4 -465 -16 -448 -10 8 -13 6 -13
-5 0 -8 5 -17 11 -19 8 -3 10 -27 4 -83 l-8 -80 -11 39 c-6 22 -17 41 -25 44
-8 3 -11 0 -8 -5 4 -6 -7 -9 -23 -8 -21 1 -30 -3 -31 -14 0 -10 -2 -11 -5 -4
-3 7 -1 20 5 30 6 11 11 13 11 5 0 -22 20 -2 20 21 1 19 2 20 13 6 18 -23 47
-20 46 5 0 12 -3 15 -6 9 -8 -21 -22 -15 -16 7 4 16 0 20 -17 20 -16 0 -21 4
-16 16 6 15 4 15 -11 3 -10 -8 -21 -18 -25 -24 -12 -16 -10 14 2 36 8 15 7 23
-5 35 -17 18 -20 50 -4 60 7 4 7 10 1 16 -25 25 12 269 38 253 11 -7 55 64 45
73 -3 4 -11 -1 -16 -11 -12 -20 -66 -77 -74 -77 -3 0 -5 14 -5 30 0 20 -5 30
-15 30 -9 0 -15 9 -14 23 0 21 1 21 9 2 10 -22 11 -18 13 40 1 27 6 39 15 37
7 -1 22 8 32 20 22 27 18 37 -5 14 -23 -23 -36 -20 -30 7 12 52 24 226 19 271
-4 33 -2 46 5 41 6 -3 11 -27 12 -53z m1409 -13 c0 -5 -4 -9 -10 -9 -5 0 -10
7 -10 16 0 8 5 12 10 9 6 -3 10 -10 10 -16z m-20 -29 c12 -8 11 -10 -7 -10
-12 0 -25 5 -28 10 -8 13 15 13 35 0z m-270 -24 c0 -3 -4 -8 -10 -11 -5 -3
-10 -1 -10 4 0 6 5 11 10 11 6 0 10 -2 10 -4z m560 -67 c0 -10 -7 -19 -15 -19
-16 0 -19 9 -9 34 8 20 24 11 24 -15z m-1317 -4 c-3 -9 -8 -14 -10 -11 -3 3
-2 9 2 15 9 16 15 13 8 -4z m677 -9 c0 -3 -4 -8 -10 -11 -5 -3 -10 -1 -10 4 0
6 5 11 10 11 6 0 10 -2 10 -4z m-700 -37 c0 -11 -3 -11 -24 -3 -23 9 -20 23 4
17 11 -3 20 -9 20 -14z m1250 -15 c0 -8 -5 -12 -10 -9 -6 4 -8 11 -5 16 9 14
15 11 15 -7z m80 -1 c0 -10 -8 -27 -16 -38 l-15 -20 -12 20 c-22 39 -15 59 11
33 9 -9 13 -7 18 5 8 22 14 22 14 0z m-2420 -13 c0 -5 11 -21 24 -35 25 -27
39 -82 23 -92 -5 -3 -14 2 -19 11 -5 9 -20 16 -34 16 -16 0 -24 5 -21 13 2 6
13 12 24 11 18 0 19 2 10 18 -7 10 -17 18 -24 18 -7 0 -13 5 -13 11 0 5 -4 7
-10 4 -16 -10 -12 12 6 29 15 16 34 13 34 -4z m1168 -12 c8 -16 24 -29 42 -33
17 -4 28 -11 24 -16 -9 -15 -44 -10 -51 6 -3 9 -22 24 -42 35 -27 14 -31 19
-16 20 17 0 18 2 5 11 -12 8 -12 10 5 7 11 -2 26 -15 33 -30z m-78 -80 c0 -7
-11 -14 -25 -14 -26 -2 -34 11 -12 19 22 10 37 7 37 -5z m-403 -40 c-3 -8 -6
-5 -6 6 -1 11 2 17 5 13 3 -3 4 -12 1 -19z m1156 -38 c3 -11 1 -20 -4 -20 -5
0 -9 9 -9 20 0 11 2 20 4 20 2 0 6 -9 9 -20z m-641 -35 c-2 -14 -8 -25 -13
-25 -10 0 -12 21 -3 44 9 24 22 10 16 -19z m-492 -71 c0 -8 -4 -12 -10 -9 -5
3 -10 10 -10 16 0 5 5 9 10 9 6 0 10 -7 10 -16z m0 -44 c0 -5 -2 -10 -4 -10
-3 0 -8 5 -11 10 -3 6 -1 10 4 10 6 0 11 -4 11 -10z m1727 -207 c-3 -10 -5 -4
-5 12 0 17 2 24 5 18 2 -7 2 -21 0 -30z m-962 -34 c-3 -4 15 -14 40 -20 66
-17 71 -37 41 -152 -13 -51 -34 -146 -45 -212 -12 -66 -29 -151 -38 -190 -8
-38 -24 -110 -34 -160 -28 -140 -44 -194 -80 -270 -18 -38 -35 -72 -39 -75
-16 -14 -40 -62 -40 -82 0 -13 -4 -29 -9 -36 -16 -25 -30 12 -33 86 -2 70 -1
74 27 96 29 23 29 23 7 30 -12 4 -22 13 -23 19 0 7 -4 3 -9 -8 -11 -25 -11 1
0 35 8 24 8 24 9 3 1 -26 16 -30 25 -7 11 27 7 131 -4 114 -8 -12 -10 -9 -10
12 0 15 4 29 9 32 4 3 11 34 15 68 4 35 9 83 12 108 3 25 11 70 19 100 7 30
17 76 20 103 4 26 11 50 16 53 5 3 9 19 9 35 0 18 6 32 16 36 11 4 12 8 4 13
-13 8 25 253 41 258 4 2 5 17 2 35 l-6 31 32 -23 c17 -12 29 -27 26 -32z m959
9 c8 -6 8 -8 -1 -8 -7 0 -10 -7 -7 -15 7 -17 -9 -41 -37 -56 -16 -8 -17 -6 -8
23 5 17 13 36 19 42 5 5 11 21 11 36 1 20 2 21 6 5 3 -11 10 -23 17 -27z
m-720 -83 c4 -12 10 -13 25 -6 28 16 33 2 10 -31 -12 -16 -18 -35 -15 -43 4
-10 -1 -15 -15 -15 -15 0 -18 -5 -15 -25 4 -19 0 -25 -14 -25 -24 0 -19 -27
23 -117 5 -12 18 -24 28 -26 13 -3 17 -1 12 6 -4 7 -6 21 -4 31 2 13 -2 17
-11 14 -9 -4 -14 2 -16 17 -2 23 19 35 64 35 12 0 26 11 34 26 8 14 32 36 54
49 l40 24 29 -31 c16 -17 32 -26 36 -21 10 15 46 0 49 -22 6 -39 3 -57 -18
-100 -12 -25 -20 -52 -18 -62 6 -32 47 54 54 114 6 43 9 51 17 38 5 -10 7 -35
4 -56 -3 -24 -1 -40 7 -43 7 -3 5 -9 -6 -16 -24 -15 -23 -29 1 -23 33 9 32
-46 -1 -79 -15 -16 -33 -28 -40 -28 -7 0 1 11 19 25 23 19 30 31 26 46 -6 21
-7 21 -20 -5 -7 -14 -21 -27 -31 -27 -17 -2 -30 -4 -87 -14 -16 -3 -24 -2 -17
1 19 9 15 44 -5 44 -14 0 -15 -2 -4 -9 17 -11 6 -17 -42 -26 -20 -4 -37 -11
-37 -15 0 -13 24 -28 50 -32 17 -2 30 -14 39 -35 15 -35 31 -44 31 -18 0 8 5
15 11 15 6 0 9 -7 5 -15 -3 -8 -1 -15 5 -15 5 0 12 6 15 14 7 18 67 14 72 -5
3 -12 2 -12 -6 0 -8 11 -15 7 -37 -17 -24 -27 -33 -31 -75 -29 -40 2 -46 5
-42 21 4 13 0 17 -14 14 -10 -2 -19 -10 -19 -18 0 -9 -10 -15 -25 -16 -54 -2
-52 -1 -45 -56 4 -29 4 -50 0 -46 -8 7 -75 -64 -75 -81 0 -16 -21 -14 -34 4
-6 9 -23 16 -36 17 -14 1 -30 5 -36 10 -6 4 -19 0 -31 -11 -19 -18 -20 -18
-48 26 -19 31 -31 41 -38 34 -17 -17 -26 -13 -20 9 3 11 9 17 14 14 5 -3 9 19
9 48 0 41 6 60 24 83 21 27 22 31 7 41 -14 11 -14 14 2 32 11 12 14 23 8 26
-20 13 27 263 70 374 7 18 16 22 53 22 30 0 46 -5 50 -15z m96 -107 c0 -17 -6
-23 -24 -24 -18 -1 -23 3 -23 22 0 19 5 24 23 24 18 0 24 -5 24 -22z m-1020
-4 c0 -8 -4 -13 -8 -10 -5 3 -19 -4 -30 -15 l-22 -20 0 21 c0 12 9 24 23 30
32 13 37 12 37 -6z m1640 -84 c0 -22 -4 -40 -9 -40 -6 0 -9 18 -8 40 1 22 5
40 9 40 4 0 8 -18 8 -40z m3 -140 c-3 -11 -12 -20 -19 -20 -17 0 -18 12 -2 28
18 18 27 15 21 -8z m-533 -59 c0 -14 -18 -23 -31 -15 -8 4 -7 9 2 15 18 11 29
11 29 0z m97 -32 c-13 -30 -15 -31 -13 -9 2 28 15 54 23 47 2 -3 -3 -20 -10
-38z m413 -43 c0 -3 -4 -8 -10 -11 -5 -3 -10 -1 -10 4 0 6 5 11 10 11 6 0 10
-2 10 -4z m-1630 -10 c0 -3 -4 -8 -10 -11 -5 -3 -10 -1 -10 4 0 6 5 11 10 11
6 0 10 -2 10 -4z m-52 -13 c-10 -2 -26 -2 -35 0 -10 3 -2 5 17 5 19 0 27 -2
18 -5z m1412 -18 c0 -8 -6 -16 -12 -17 -7 0 -18 -2 -23 -2 -6 -1 -21 -9 -35
-19 -13 -9 -30 -17 -37 -17 -7 0 -13 -4 -13 -10 0 -5 -5 -10 -11 -10 -5 0 -8
4 -4 9 3 5 1 12 -5 16 -20 12 -10 25 19 25 17 0 33 5 36 11 4 6 12 8 19 6 6
-3 20 1 31 9 24 18 35 18 35 -1z m-1807 -159 c4 -10 1 -13 -9 -9 -15 6 -19 23
-5 23 5 0 11 -7 14 -14z m924 -128 c-3 -8 -6 -5 -6 6 -1 11 2 17 5 13 3 -3 4
-12 1 -19z m1168 -7 c-6 -5 -25 10 -25 20 0 5 6 4 14 -3 8 -7 12 -15 11 -17z
m-695 14 c0 -4 -7 -19 -15 -35 -16 -32 -35 -40 -35 -16 0 8 -3 21 -6 29 -3 10
2 17 13 20 27 7 43 8 43 2z m-1690 -50 c7 -9 14 -25 15 -38 1 -12 3 -29 4 -37
1 -13 4 -12 15 2 12 16 14 16 30 -3 9 -11 14 -24 11 -29 -4 -6 -2 -10 4 -10 5
0 9 -13 9 -30 -1 -32 -24 -42 -34 -15 -4 8 -10 15 -15 15 -11 0 -79 70 -96 99
-11 17 -10 19 2 15 9 -4 16 3 21 20 7 30 16 33 34 11z m2363 2 c3 -8 -1 -14
-8 -14 -7 0 -11 6 -8 14 3 7 6 13 8 13 2 0 5 -6 8 -13z m-2196 -87 c-11 -23
-22 -39 -24 -36 -6 6 27 76 37 76 4 0 -2 -18 -13 -40z m153 -9 c0 -5 -8 -11
-17 -15 -10 -3 -24 -9 -31 -12 -8 -4 -10 0 -6 10 5 13 19 21 47 25 4 0 7 -3 7
-8z m862 -56 c-3 -51 -7 -65 -19 -65 -13 0 -15 8 -9 45 5 38 21 85 29 85 1 0
0 -29 -1 -65z m-832 -41 c0 -2 -10 -4 -22 -4 -19 0 -20 -2 -8 -10 8 -5 11 -10
5 -10 -5 0 -16 4 -23 9 -11 6 -10 10 3 15 12 4 15 13 11 30 -9 36 6 40 21 5 7
-17 13 -33 13 -35z m-445 26 c19 -8 19 -9 -2 -9 -12 -1 -25 4 -28 9 -7 12 2
12 30 0z m189 -45 c-4 -8 -8 -15 -10 -15 -2 0 -4 7 -4 15 0 8 4 15 10 15 5 0
7 -7 4 -15z m2256 -17 c0 -7 -4 -19 -9 -27 -7 -10 -9 -7 -8 12 2 26 17 39 17
15z m30 -18 c0 -5 -5 -10 -11 -10 -5 0 -7 5 -4 10 3 6 8 10 11 10 2 0 4 -4 4
-10z"/>
<path d="M985 1971 c-3 -5 -1 -12 5 -16 5 -3 10 1 10 9 0 18 -6 21 -15 7z"/>
<path d="M850 1720 c0 -5 5 -10 10 -10 6 0 10 5 10 10 0 6 -4 10 -10 10 -5 0
-10 -4 -10 -10z"/>
<path d="M926 1705 c-9 -26 -7 -32 5 -12 6 10 9 21 6 23 -2 3 -7 -2 -11 -11z"/>
<path d="M900 1350 c0 -5 5 -10 10 -10 6 0 10 5 10 10 0 6 -4 10 -10 10 -5 0
-10 -4 -10 -10z"/>
<path d="M891 1224 c0 -11 3 -14 6 -6 3 7 2 16 -1 19 -3 4 -6 -2 -5 -13z"/>
<path d="M1466 882 c-9 -26 -1 -41 13 -26 5 5 5 18 1 29 -7 19 -7 19 -14 -3z"/>
<path d="M1485 720 c-3 -5 -1 -18 4 -27 9 -16 10 -14 11 10 0 28 -5 34 -15 17z"/>
<path d="M1540 693 c0 -15 -8 -27 -22 -33 -13 -5 -36 -18 -53 -29 -28 -19 -28
-21 -8 -21 16 0 21 -4 17 -15 -4 -8 -12 -15 -18 -15 -7 0 -13 -6 -13 -14 0
-16 23 -11 48 11 14 12 18 12 22 1 4 -10 6 -10 6 0 1 6 8 12 16 12 23 0 18 18
-7 22 -12 2 -23 8 -25 14 -5 16 27 27 41 14 9 -7 11 -2 8 19 -2 16 1 32 7 35
16 10 14 23 -4 23 -9 0 -15 -10 -15 -24z"/>
<path d="M1496 525 c-9 -24 5 -41 16 -20 7 11 7 20 0 27 -6 6 -12 3 -16 -7z"/>
<path d="M2506 1244 c-4 -9 -4 -19 -1 -22 2 -3 7 3 11 12 4 9 4 19 1 22 -2 3
-7 -3 -11 -12z"/>
<path d="M1755 1180 c-4 -6 5 -10 19 -10 14 0 26 5 26 10 0 6 -9 10 -19 10
-11 0 -23 -4 -26 -10z"/>
<path d="M1767 1077 c-22 -22 -20 -26 9 -18 14 4 19 11 15 21 -5 14 -8 13 -24
-3z"/>
<path d="M2010 1075 c0 -8 5 -15 10 -15 6 0 10 7 10 15 0 8 -4 15 -10 15 -5 0
-10 -7 -10 -15z"/>
<path d="M2025 1043 c-26 -6 -44 -23 -24 -23 8 0 24 7 35 15 10 8 17 14 14 14
-3 -1 -14 -3 -25 -6z"/>
<path d="M2056 1018 c-16 -12 -44 -22 -63 -22 -38 0 -39 -3 -17 -34 l16 -23
23 26 c13 14 30 25 38 25 8 0 19 11 25 25 14 30 14 30 -22 3z"/>
<path d="M1938 1023 c7 -3 16 -2 19 1 4 3 -2 6 -13 5 -11 0 -14 -3 -6 -6z"/>
<path d="M1960 880 c0 -5 7 -10 16 -10 8 0 12 5 9 10 -3 6 -10 10 -16 10 -5 0
-9 -4 -9 -10z"/>
<path d="M1775 850 c-3 -5 1 -10 9 -10 9 0 16 5 16 10 0 6 -4 10 -9 10 -6 0
-13 -4 -16 -10z"/>
<path d="M1940 830 c0 -5 4 -10 9 -10 6 0 13 5 16 10 3 6 -1 10 -9 10 -9 0
-16 -4 -16 -10z"/>
<path d="M1931 738 c-5 -13 -7 -25 -5 -27 5 -6 44 30 44 41 0 18 -31 7 -39
-14z"/>
<path d="M1789 731 c-22 -25 -31 -61 -14 -61 29 0 60 26 60 50 0 30 -24 36
-46 11z"/>
<path d="M1743 698 c-2 -16 1 -18 10 -9 7 7 8 14 1 21 -6 6 -10 2 -11 -12z"/>
<path d="M1858 703 c7 -3 16 -2 19 1 4 3 -2 6 -13 5 -11 0 -14 -3 -6 -6z"/>
<path d="M2050 678 c0 -4 7 -8 15 -8 8 0 15 4 15 8 0 5 -7 9 -15 9 -8 0 -15
-4 -15 -9z"/>
<path d="M1694 658 l-19 -23 25 20 c14 11 27 21 29 22 2 2 0 3 -6 3 -5 0 -18
-10 -29 -22z"/>
<path d="M1843 663 c9 -2 23 -2 30 0 6 3 -1 5 -18 5 -16 0 -22 -2 -12 -5z"/>
<path d="M1753 631 c-9 -15 -9 -26 0 -50 14 -37 26 -41 20 -7 -3 13 0 27 6 30
15 10 14 46 -2 46 -7 0 -18 -9 -24 -19z"/>
<path d="M1860 646 c0 -2 7 -9 15 -16 12 -10 15 -10 15 4 0 9 -7 16 -15 16 -8
0 -15 -2 -15 -4z"/>
<path d="M1650 554 c0 -7 3 -15 8 -17 11 -7 44 7 43 18 -1 15 -51 14 -51 -1z"/>
<path d="M2395 2549 c-4 -6 -4 -13 -1 -16 3 -4 6 -1 6 5 0 13 32 17 43 6 3 -4
2 -15 -4 -25 -5 -11 -14 -45 -20 -76 -6 -32 -15 -63 -20 -69 -5 -6 -6 -21 -1
-33 7 -20 10 -18 29 26 29 64 45 138 37 168 -5 19 -13 25 -34 25 -16 0 -32 -5
-35 -11z"/>
<path d="M2400 2510 c0 -5 5 -10 10 -10 6 0 10 5 10 10 0 6 -4 10 -10 10 -5 0
-10 -4 -10 -10z"/>
<path d="M187 2485 c-4 -8 -2 -17 3 -20 6 -4 10 3 10 14 0 25 -6 27 -13 6z"/>
<path d="M2120 2455 c0 -8 5 -15 10 -15 6 0 10 7 10 15 0 8 -4 15 -10 15 -5 0
-10 -7 -10 -15z"/>
<path d="M2110 2400 c0 -5 5 -10 10 -10 6 0 10 5 10 10 0 6 -4 10 -10 10 -5 0
-10 -4 -10 -10z"/>
<path d="M102 2380 c0 -14 2 -19 5 -12 2 6 2 18 0 25 -3 6 -5 1 -5 -13z"/>
<path d="M15 2340 c-3 -5 -1 -10 4 -10 6 0 11 5 11 10 0 6 -2 10 -4 10 -3 0
-8 -4 -11 -10z"/>
<path d="M172 2280 c0 -14 2 -19 5 -12 2 6 2 18 0 25 -3 6 -5 1 -5 -13z"/>
<path d="M2356 2291 c-4 -7 -5 -15 -2 -18 9 -9 19 4 14 18 -4 11 -6 11 -12 0z"/>
<path d="M462 2249 c-19 -30 -6 -37 18 -9 23 27 24 30 7 30 -7 0 -18 -9 -25
-21z"/>
<path d="M527 2243 c-11 -10 -8 -35 3 -28 6 3 10 1 10 -4 0 -6 5 -11 10 -11 6
0 10 7 10 15 0 8 8 15 18 16 14 0 14 2 -3 9 -25 11 -40 12 -48 3z"/>
<path d="M2372 2225 c0 -16 2 -22 5 -12 2 9 2 23 0 30 -3 6 -5 -1 -5 -18z"/>
<path d="M2410 2210 c0 -5 5 -10 11 -10 5 0 7 5 4 10 -3 6 -8 10 -11 10 -2 0
-4 -4 -4 -10z"/>
<path d="M671 2064 c0 -11 3 -14 6 -6 3 7 2 16 -1 19 -3 4 -6 -2 -5 -13z"/>
<path d="M740 1980 c-9 -6 -10 -10 -3 -10 6 0 18 -3 27 -6 11 -4 16 -1 16 10
0 18 -17 21 -40 6z"/>
<path d="M0 1920 c0 -5 4 -10 9 -10 6 0 13 5 16 10 3 6 -1 10 -9 10 -9 0 -16
-4 -16 -10z"/>
<path d="M760 1905 c0 -8 5 -15 10 -15 6 0 10 7 10 15 0 8 -4 15 -10 15 -5 0
-10 -7 -10 -15z"/>
<path d="M1229 1728 c0 -2 -2 -32 -4 -68 -1 -36 -8 -66 -14 -68 -19 -6 -12
-17 12 -17 22 0 23 3 24 78 1 42 -3 77 -8 77 -5 0 -9 -1 -10 -2z"/>
<path d="M736 1684 c-3 -9 -6 -23 -6 -32 0 -21 15 -5 25 26 7 25 -9 31 -19 6z"/>
<path d="M7 1679 c7 -7 15 -10 18 -7 3 3 -2 9 -12 12 -14 6 -15 5 -6 -5z"/>
<path d="M1040 1680 c0 -5 5 -10 11 -10 5 0 7 5 4 10 -3 6 -8 10 -11 10 -2 0
-4 -4 -4 -10z"/>
<path d="M1124 1644 c5 -14 4 -15 -8 -5 -11 9 -20 10 -35 1 -22 -11 -29 -40
-10 -40 5 0 8 -4 4 -10 -3 -5 5 -15 17 -22 13 -7 23 -20 23 -28 0 -8 8 -16 18
-18 9 -2 17 2 17 8 0 6 -4 9 -9 6 -15 -10 -19 44 -5 59 20 19 18 65 -2 65 -11
0 -14 -5 -10 -16z"/>
<path d="M1170 1640 c0 -5 5 -10 10 -10 6 0 10 5 10 10 0 6 -4 10 -10 10 -5 0
-10 -4 -10 -10z"/>
<path d="M0 1600 c0 -5 5 -10 11 -10 5 0 7 5 4 10 -3 6 -8 10 -11 10 -2 0 -4
-4 -4 -10z"/>
<path d="M1237 1543 c-9 -15 -6 -93 4 -93 5 0 9 9 9 20 0 11 5 20 11 20 14 0
7 52 -8 57 -6 2 -13 0 -16 -4z"/>
<path d="M192 1528 c-7 -7 -12 -20 -12 -30 0 -17 1 -17 20 2 20 20 26 40 12
40 -4 0 -13 -5 -20 -12z"/>
<path d="M260 1519 c0 -5 5 -7 10 -4 6 3 10 8 10 11 0 2 -4 4 -10 4 -5 0 -10
-5 -10 -11z"/>
<path d="M600 1506 c0 -21 21 -31 30 -15 5 7 6 17 4 21 -9 14 -34 9 -34 -6z"/>
<path d="M1088 1488 c5 -33 29 -78 41 -78 6 0 31 71 31 90 0 5 -13 7 -30 4
-19 -4 -30 -2 -30 5 0 6 -4 11 -8 11 -5 0 -6 -15 -4 -32z"/>
<path d="M10 1480 c-13 -8 -12 -10 4 -10 10 0 24 -7 31 -17 17 -24 38 -8 22
17 -13 22 -34 25 -57 10z"/>
<path d="M520 1472 c0 -12 39 -52 51 -52 6 0 8 -12 4 -29 -3 -16 -2 -32 3 -35
11 -6 25 51 16 65 -3 5 -12 9 -20 9 -8 0 -13 3 -12 8 3 15 -15 42 -28 42 -8 0
-14 -4 -14 -8z"/>
<path d="M1273 1473 c-18 -7 -16 -23 2 -23 8 0 15 7 15 15 0 8 -1 15 -2 14 -2
0 -9 -3 -15 -6z"/>
<path d="M620 1380 c0 -5 0 -12 0 -15 0 -12 14 -4 16 10 1 8 -2 15 -7 15 -5 0
-9 -4 -9 -10z"/>
<path d="M1082 1355 c-25 -54 -9 -56 28 -5 21 29 21 30 2 30 -10 0 -24 -11
-30 -25z"/>
<path d="M643 1342 c-9 -6 -9 -17 2 -47 l14 -40 1 48 c0 26 -1 47 -2 47 -2 0
-8 -4 -15 -8z"/>
<path d="M390 1319 c0 -5 5 -7 10 -4 6 3 10 8 10 11 0 2 -4 4 -10 4 -5 0 -10
-5 -10 -11z"/>
<path d="M1112 1288 c-15 -15 -16 -28 -2 -28 6 0 10 6 10 14 0 8 6 17 13 19 6
3 7 6 2 6 -6 1 -16 -4 -23 -11z"/>
<path d="M720 1281 c0 -5 5 -13 10 -16 6 -3 10 -2 10 4 0 5 -4 13 -10 16 -5 3
-10 2 -10 -4z"/>
<path d="M675 1270 c3 -5 8 -10 11 -10 2 0 4 5 4 10 0 6 -5 10 -11 10 -5 0 -7
-4 -4 -10z"/>
<path d="M345 1210 c-3 -5 -1 -10 4 -10 6 0 11 5 11 10 0 6 -2 10 -4 10 -3 0
-8 -4 -11 -10z"/>
<path d="M46 1113 c10 -44 26 -54 22 -14 -2 19 -9 36 -16 39 -9 3 -11 -4 -6
-25z"/>
<path d="M120 1119 c0 -11 27 -12 34 -1 2 4 -4 9 -15 9 -10 1 -19 -2 -19 -8z"/>
<path d="M142 1060 c0 -14 2 -19 5 -12 2 6 2 18 0 25 -3 6 -5 1 -5 -13z"/>
<path d="M95 1040 c-3 -6 1 -7 9 -4 18 7 21 14 7 14 -6 0 -13 -4 -16 -10z"/>
<path d="M730 1026 c-15 -42 -11 -55 6 -17 8 19 12 36 9 39 -2 3 -9 -7 -15
-22z"/>
<path d="M1160 1000 c0 -5 5 -10 11 -10 5 0 7 5 4 10 -3 6 -8 10 -11 10 -2 0
-4 -4 -4 -10z"/>
<path d="M1305 970 c-3 -5 -1 -10 4 -10 6 0 11 5 11 10 0 6 -2 10 -4 10 -3 0
-8 -4 -11 -10z"/>
<path d="M1228 954 c-11 -10 -10 -56 1 -73 6 -9 6 -22 -1 -34 -12 -24 -3 -34
17 -17 10 8 13 21 9 37 -7 25 -7 25 20 8 25 -17 26 -17 26 4 0 16 -8 23 -29
27 -22 5 -31 13 -33 31 -2 14 -6 21 -10 17z"/>
<path d="M186 923 c2 -7 -2 -13 -8 -13 -9 0 -9 -3 -1 -11 9 -9 16 -8 28 5 14
13 14 16 2 16 -9 0 -17 3 -20 8 -2 4 -2 1 -1 -5z"/>
<path d="M60 892 c0 -7 -3 -11 -7 -10 -10 3 -53 -25 -53 -34 0 -11 32 3 54 24
11 10 16 21 13 25 -4 3 -7 1 -7 -5z"/>
<path d="M32 838 c-17 -17 -15 -31 10 -52 18 -15 20 -16 15 -2 -4 9 -2 16 3
16 6 0 10 5 10 11 0 8 -5 8 -15 -1 -12 -10 -15 -10 -15 4 0 9 5 16 10 16 6 0
10 5 10 10 0 14 -13 13 -28 -2z"/>
<path d="M1280 840 c0 -5 5 -10 10 -10 6 0 10 5 10 10 0 6 -4 10 -10 10 -5 0
-10 -4 -10 -10z"/>
<path d="M1200 792 c0 -8 8 -16 18 -19 12 -3 19 -14 19 -31 1 -31 21 -87 29
-79 3 3 1 22 -5 43 -6 23 -7 42 -1 49 13 16 -4 37 -24 29 -11 -4 -22 -1 -27 7
-7 11 -9 11 -9 1z"/>
<path d="M21 741 c-12 -12 -21 -27 -21 -33 0 -7 12 0 26 15 30 33 26 49 -5 18z"/>
<path d="M70 740 c0 -5 7 -10 16 -10 8 0 12 5 9 10 -3 6 -10 10 -16 10 -5 0
-9 -4 -9 -10z"/>
<path d="M82 693 c-12 -14 -21 -27 -19 -30 8 -7 50 34 46 45 -2 6 -14 0 -27
-15z"/>
<path d="M1220 689 c0 -5 5 -7 10 -4 6 3 10 8 10 11 0 2 -4 4 -10 4 -5 0 -10
-5 -10 -11z"/>
<path d="M500 660 c0 -5 5 -10 10 -10 6 0 10 5 10 10 0 6 -4 10 -10 10 -5 0
-10 -4 -10 -10z"/>
<path d="M130 645 c0 -8 4 -15 10 -15 5 0 7 7 4 15 -4 8 -8 15 -10 15 -2 0 -4
-7 -4 -15z"/>
<path d="M370 630 c0 -19 3 -21 12 -12 9 9 9 15 0 24 -9 9 -12 7 -12 -12z"/>
<path d="M400 605 c-16 -20 -5 -31 39 -40 l34 -7 -22 31 c-25 35 -33 37 -51
16z"/>
<path d="M905 610 c3 -5 8 -10 11 -10 2 0 4 5 4 10 0 6 -5 10 -11 10 -5 0 -7
-4 -4 -10z"/>
<path d="M154 594 c3 -8 6 -21 6 -27 0 -7 4 -6 10 3 14 21 12 27 -6 34 -12 5
-15 2 -10 -10z"/>
<path d="M1165 600 c3 -5 8 -10 11 -10 2 0 4 5 4 10 0 6 -5 10 -11 10 -5 0 -7
-4 -4 -10z"/>
<path d="M10 588 c0 -8 -3 -37 -7 -64 -6 -43 -5 -47 8 -34 9 8 22 26 31 40 14
23 13 27 -9 49 -17 18 -23 20 -23 9z"/>
<path d="M980 579 c0 -5 5 -7 10 -4 6 3 10 8 10 11 0 2 -4 4 -10 4 -5 0 -10
-5 -10 -11z"/>
<path d="M128 533 c7 -3 16 -2 19 1 4 3 -2 6 -13 5 -11 0 -14 -3 -6 -6z"/>
<path d="M190 526 c0 -9 5 -16 10 -16 6 0 10 4 10 9 0 6 -4 13 -10 16 -5 3
-10 -1 -10 -9z"/>
<path d="M873 483 c9 -2 23 -2 30 0 6 3 -1 5 -18 5 -16 0 -22 -2 -12 -5z"/>
<path d="M938 483 c7 -3 16 -2 19 1 4 3 -2 6 -13 5 -11 0 -14 -3 -6 -6z"/>
<path d="M1156 464 c-18 -17 -20 -24 -8 -24 4 0 13 9 20 20 15 24 9 26 -12 4z"/>
<path d="M1610 456 c0 -9 5 -16 10 -16 6 0 10 4 10 9 0 6 -4 13 -10 16 -5 3
-10 -1 -10 -9z"/>
<path d="M2355 460 c3 -5 8 -10 11 -10 2 0 4 5 4 10 0 6 -5 10 -11 10 -5 0 -7
-4 -4 -10z"/>
<path d="M20 445 c-1 -5 -2 -13 -1 -17 0 -5 -3 -8 -9 -8 -5 0 -10 -11 -10 -25
0 -27 9 -32 28 -13 10 10 17 10 32 0 10 -6 21 -8 24 -3 3 5 -7 14 -24 21 -16
7 -31 21 -33 33 -2 12 -5 18 -7 12z"/>
<path d="M1205 410 c-3 -5 3 -10 15 -10 12 0 18 5 15 10 -3 6 -10 10 -15 10
-5 0 -12 -4 -15 -10z"/>
<path d="M2034 361 c3 -5 15 -7 26 -4 28 7 25 13 -6 13 -14 0 -23 -4 -20 -9z"/>
<path d="M2168 359 c-18 -10 -25 -39 -10 -39 9 1 52 36 52 44 0 9 -23 7 -42
-5z"/>
<path d="M406 315 c4 -8 13 -15 21 -15 13 0 13 3 3 15 -7 8 -16 15 -21 15 -5
0 -6 -7 -3 -15z"/>
<path d="M1250 314 c0 -14 3 -15 18 -3 9 7 19 15 21 16 2 2 -5 3 -17 3 -14 0
-22 -6 -22 -16z"/>
<path d="M1882 300 c0 -14 2 -19 5 -12 2 6 2 18 0 25 -3 6 -5 1 -5 -13z"/>
<path d="M2340 301 c0 -5 -3 -16 -6 -24 -6 -17 25 -32 39 -18 5 5 4 17 -2 30
-12 21 -31 29 -31 12z"/>
<path d="M1845 275 c7 -32 21 -52 30 -43 4 3 -4 21 -15 39 l-22 34 7 -30z"/>
<path d="M2075 269 c-11 -17 1 -21 15 -4 8 9 8 15 2 15 -6 0 -14 -5 -17 -11z"/>
<path d="M1890 260 c0 -5 5 -10 10 -10 6 0 10 5 10 10 0 6 -4 10 -10 10 -5 0
-10 -4 -10 -10z"/>
<path d="M2200 255 c-7 -8 -8 -15 -2 -15 5 0 15 7 22 15 7 8 8 15 2 15 -5 0
-15 -7 -22 -15z"/>
<path d="M2224 235 c-3 -8 -4 -20 -2 -27 3 -7 7 -1 10 15 6 29 1 36 -8 12z"/>
<path d="M2244 226 c-3 -14 -4 -31 -1 -38 3 -7 6 -1 6 14 1 14 6 28 13 30 9 3
9 6 0 12 -7 4 -14 -2 -18 -18z"/>
<path d="M1643 233 c-7 -2 -13 -11 -13 -19 0 -8 -7 -14 -15 -14 -16 0 -20 -16
-6 -24 8 -5 40 25 55 52 7 12 0 14 -21 5z"/>
<path d="M1886 225 c-4 -10 1 -15 14 -15 13 0 18 5 14 15 -4 8 -10 15 -14 15
-4 0 -10 -7 -14 -15z"/>
<path d="M1980 215 c-18 -21 -3 -32 16 -13 10 9 12 18 6 22 -5 3 -15 -1 -22
-9z"/>
<path d="M1500 187 c0 -14 5 -29 10 -32 7 -4 8 3 4 22 -9 38 -14 42 -14 10z"/>
<path d="M2344 195 c-11 -27 1 -33 19 -9 16 21 16 24 2 24 -9 0 -18 -7 -21
-15z"/>
<path d="M1910 183 c0 -3 7 -15 17 -25 15 -17 15 -18 -1 -18 -26 0 -43 -21
-38 -47 2 -13 0 -23 -6 -23 -6 0 -12 10 -14 23 -2 14 -11 23 -25 25 -12 2 -27
10 -33 18 -19 22 -30 17 -29 -13 1 -16 -5 -41 -14 -57 -9 -16 -13 -34 -10 -39
3 -5 -3 -6 -14 -3 -12 4 -25 1 -33 -9 -11 -13 -4 -15 62 -15 44 0 79 5 86 12
9 9 12 9 12 0 0 -7 14 -12 35 -12 28 0 35 4 35 20 0 11 5 20 10 20 6 0 10 -6
10 -14 0 -14 21 -26 46 -26 22 0 18 66 -6 90 -24 24 -25 30 -6 30 8 0 23 -11
33 -25 l18 -26 22 20 c15 14 23 17 26 8 6 -16 -12 -41 -35 -50 -10 -3 -18 -16
-18 -27 0 -16 6 -20 35 -20 22 0 44 8 57 20 12 11 34 20 50 20 32 0 35 11 11
40 -22 25 -37 26 -30 1 4 -17 2 -18 -18 -11 -13 5 -25 6 -28 4 -3 -3 -8 8 -12
25 -4 17 -11 31 -16 31 -5 0 -9 7 -9 15 0 21 -13 19 -28 -5 -15 -24 -32 -26
-32 -4 0 10 -6 14 -15 11 -8 -4 -17 -1 -21 5 -5 7 -2 8 7 3 11 -7 11 -5 -1 9
-8 11 -16 14 -18 7 -2 -6 -8 -11 -13 -11 -6 0 -7 5 -3 12 4 6 3 8 -4 4 -6 -3
-13 -2 -17 4 -7 11 -25 14 -25 3z m55 -123 c-3 -5 -10 -10 -16 -10 -5 0 -9 5
-9 10 0 6 7 10 16 10 8 0 12 -4 9 -10z"/>
<path d="M1455 127 c-14 -63 -25 -113 -25 -119 0 -5 21 -8 48 -7 37 1 42 3 22
9 -22 6 -23 8 -7 15 10 4 16 14 13 21 -3 8 4 23 16 34 l21 19 -37 -6 c-23 -4
-36 -2 -36 6 0 10 13 15 32 13 3 -1 12 5 19 14 7 8 8 14 3 13 -5 -1 -11 -1
-14 1 -32 12 -50 8 -55 -13z"/>
<path d="M1637 130 c-16 -15 -16 -19 -4 -27 8 -4 16 -15 19 -23 4 -11 8 -9 17
8 9 17 9 27 2 36 -6 7 -8 16 -4 19 3 4 2 7 -3 6 -5 0 -17 -9 -27 -19z"/>
<path d="M1584 31 c13 -15 14 -20 4 -24 -8 -4 -7 -6 5 -6 9 -1 17 3 17 8 0 5
2 15 5 23 4 9 -3 14 -21 16 -26 2 -26 1 -10 -17z"/>
<path d="M2150 14 c-24 -13 -22 -14 30 -13 30 1 47 3 38 6 -10 2 -18 9 -18 14
0 12 -20 10 -50 -7z"/>
<path d="M1538 3 c6 -2 18 -2 25 0 6 3 1 5 -13 5 -14 0 -19 -2 -12 -5z"/>
</g>
</svg>
