<?xml version="1.0" standalone="no"?>
<!DOCTYPE svg PUBLIC "-//W3C//DTD SVG 20010904//EN"
 "http://www.w3.org/TR/2001/REC-SVG-20010904/DTD/svg10.dtd">
<svg version="1.0" xmlns="http://www.w3.org/2000/svg"
 width="1000.000000pt" height="1000.000000pt" viewBox="0 0 1000.000000 1000.000000"
 preserveAspectRatio="xMidYMid meet">
<metadata>
Created by potrace 1.14, written by Peter Selinger 2001-2017
</metadata>
<g transform="translate(0.000000,1000.000000) scale(0.100000,-0.100000)"
fill="#000000" stroke="none">
<path d="M0 5000 l0 -5000 5000 0 5000 0 0 5000 0 5000 -5000 0 -5000 0 0
-5000z m4123 1267 c285 -70 480 -238 532 -458 19 -83 19 -229 0 -303 -48 -184
-207 -357 -432 -470 -29 -15 -53 -29 -53 -32 0 -3 21 -35 48 -72 107 -149 200
-312 332 -578 82 -165 152 -294 170 -312 16 -17 52 -38 80 -47 65 -22 90 -54
90 -116 0 -53 -20 -84 -62 -94 -13 -3 -236 -4 -496 -3 l-474 3 -24 28 c-31 37
-32 94 -2 132 12 15 45 38 74 51 28 12 61 35 74 51 30 38 21 96 -30 193 -21
41 -83 161 -136 265 -93 183 -140 265 -189 331 l-23 30 -114 -23 c-62 -12
-148 -23 -191 -23 l-78 0 3 -362 c3 -422 0 -407 99 -459 33 -18 69 -44 80 -57
27 -35 25 -94 -5 -129 l-24 -28 -462 0 -462 0 -24 28 c-32 37 -33 96 -1 132
12 15 49 41 82 58 38 21 65 43 75 62 23 45 23 1895 0 1940 -10 20 -37 42 -84
66 -38 20 -75 47 -82 60 -16 29 -18 83 -4 109 27 51 6 50 855 47 696 -3 798
-6 858 -20z m2018 -46 c23 -23 29 -38 29 -71 0 -60 -12 -75 -92 -116 -61 -33
-74 -44 -90 -82 -26 -57 -21 -81 59 -324 l64 -198 484 0 485 0 15 35 c36 87
95 279 106 342 20 119 -10 181 -111 231 -71 35 -97 80 -80 141 19 70 23 71
400 71 l332 0 29 -29 c23 -24 29 -38 29 -73 0 -57 -17 -80 -84 -111 -30 -14
-65 -41 -79 -59 -27 -36 -83 -176 -331 -823 -91 -236 -191 -493 -222 -570
-114 -278 -355 -723 -439 -811 -49 -52 -90 -64 -213 -64 -117 0 -148 13 -202
83 -188 250 -414 746 -742 1627 -190 513 -196 526 -245 572 -15 14 -50 36 -76
48 -59 28 -77 53 -77 108 0 35 6 49 29 73 l29 29 482 0 482 0 29 -29z"/>
<path d="M3394 6045 c-102 -22 -140 -49 -169 -118 -13 -31 -15 -100 -15 -442
l0 -405 29 0 c59 0 238 22 306 37 339 76 530 298 486 565 -16 99 -50 168 -116
237 -92 97 -210 142 -370 140 -49 0 -118 -7 -151 -14z"/>
<path d="M6226 5118 c62 -203 347 -888 369 -888 12 0 154 306 225 485 71 178
160 412 160 420 0 3 -171 5 -381 5 l-380 0 7 -22z"/>
</g>
</svg>
