<?xml version="1.0" standalone="no"?>
<!DOCTYPE svg PUBLIC "-//W3C//DTD SVG 20010904//EN"
 "http://www.w3.org/TR/2001/REC-SVG-20010904/DTD/svg10.dtd">
<svg version="1.0" xmlns="http://www.w3.org/2000/svg"
 width="1000.000000pt" height="1000.000000pt" viewBox="0 0 1000.000000 1000.000000"
 preserveAspectRatio="xMidYMid meet">
<metadata>
Created by potrace 1.14, written by Peter Selinger 2001-2017
</metadata>
<g transform="translate(0.000000,1000.000000) scale(0.100000,-0.100000)"
fill="#000000" stroke="none">
<path d="M0 5000 l0 -5000 5000 0 5000 0 0 5000 0 5000 -5000 0 -5000 0 0
-5000z m4635 1595 c-30 -29 -33 -77 -9 -133 22 -54 61 -89 123 -113 75 -27
130 -60 167 -101 34 -36 139 -183 317 -442 133 -192 129 -168 43 -282 -129
-172 -359 -338 -631 -455 -55 -23 -101 -44 -103 -45 -2 -1 10 -28 26 -60 83
-166 175 -442 226 -679 80 -365 97 -426 131 -464 20 -22 53 -43 84 -54 30 -10
58 -28 67 -43 24 -36 14 -114 -19 -157 -53 -69 -26 -67 -715 -67 l-621 0 -28
24 c-22 19 -27 31 -26 64 4 83 58 139 175 182 127 45 164 96 155 215 -2 39
-18 110 -35 160 -16 50 -44 155 -62 235 -35 160 -84 325 -123 411 l-25 56
-118 -23 c-67 -14 -179 -27 -257 -31 l-137 -6 -19 -66 c-122 -413 -223 -785
-224 -823 -2 -58 21 -93 89 -130 27 -15 57 -37 66 -49 43 -52 5 -156 -71 -196
l-44 -23 -577 0 c-569 0 -578 0 -604 21 -21 17 -26 29 -26 67 0 85 48 134 184
188 102 40 138 81 174 196 17 51 166 568 332 1148 212 737 303 1071 304 1107
1 63 -17 86 -91 119 -62 28 -83 55 -83 110 0 67 59 137 131 154 19 4 449 8
956 9 l922 1 -24 -25z m953 -4 c31 -18 49 -39 68 -77 40 -82 22 -125 -71 -172
-147 -73 -117 -209 124 -574 l110 -168 634 0 633 0 12 173 c19 273 16 372 -12
433 -28 61 -79 105 -155 133 -120 45 -165 84 -182 160 -12 56 4 92 51 108 43
14 1173 18 1234 3 78 -18 136 -84 136 -156 0 -62 -7 -72 -71 -104 -65 -33
-102 -76 -118 -135 -12 -47 -36 -232 -51 -400 -70 -761 -172 -1471 -265 -1835
-58 -226 -130 -411 -184 -472 l-39 -43 -136 -3 c-158 -4 -227 8 -289 49 -101
66 -464 468 -709 784 -162 209 -285 384 -888 1260 -522 759 -507 740 -641 795
-83 33 -114 59 -140 115 -34 73 -18 126 44 144 18 6 207 9 447 8 l415 -2 43
-24z"/>
<path d="M3945 6319 c-189 -28 -293 -95 -344 -222 -18 -46 -281 -956 -281
-973 0 -13 263 5 380 25 305 53 534 157 694 316 140 138 208 290 210 465 1 86
-2 101 -30 160 -56 119 -158 195 -302 226 -73 15 -232 17 -327 3z"/>
<path d="M6175 5060 c212 -311 414 -590 562 -776 81 -101 148 -182 150 -181
11 11 65 285 83 417 33 251 69 549 76 633 l7 77 -497 0 -497 0 116 -170z"/>
</g>
</svg>
